<?xml version="1.0" encoding="UTF-8" standalone="no"?>
<svg
   width="400"
   height="400"
   viewBox="0 0 400 400"
   fill="none"
   version="1.1"
   id="svg3"
   sodipodi:docname="icon.svg"
   xml:space="preserve"
   inkscape:version="1.4.3 (0d15f75, 2025-12-25)"
   inkscape:export-filename="..\icon.png"
   inkscape:export-xdpi="96"
   inkscape:export-ydpi="96"
   xmlns:inkscape="http://www.inkscape.org/namespaces/inkscape"
   xmlns:sodipodi="http://sodipodi.sourceforge.net/DTD/sodipodi-0.dtd"
   xmlns="http://www.w3.org/2000/svg"
   xmlns:svg="http://www.w3.org/2000/svg"><sodipodi:namedview
     id="namedview3"
     pagecolor="#ffffff"
     bordercolor="#000000"
     borderopacity="0.25"
     inkscape:showpageshadow="2"
     inkscape:pageopacity="0.0"
     inkscape:pagecheckerboard="0"
     inkscape:deskcolor="#d1d1d1"
     inkscape:zoom="1.4265879"
     inkscape:cx="4.5563263"
     inkscape:cy="276.53396"
     inkscape:window-width="1920"
     inkscape:window-height="1009"
     inkscape:window-x="3832"
     inkscape:window-y="-8"
     inkscape:window-maximized="1"
     inkscape:current-layer="svg3" /><g
     clip-path="url(#clip0_73_1152)"
     id="g3"
     inkscape:label="groupIcon"
     sodipodi:insensitive="true"
     style="display:none"><path
       d="m 200,400.071 c 110.457,0 200,-89.559 200,-200.035 C 400,89.559 310.457,0 200,0 89.5431,0 0,89.559 0,200.036 0,310.512 89.5431,400.071 200,400.071 Z"
       fill="#cfe9fe"
       id="path1" /><path
       d="m 151.945,270.623 c -9.549,6.494 -20.434,9.358 -31.893,8.403 -11.65,-0.954 -21.7719,-5.347 -30.366,-12.795 l -3.2467,-3.247 c -9.549,-9.549 -14.3235,-21.008 -13.9415,-34.377 0.191,-13.369 5.3474,-25.018 14.8964,-34.568 l 45.2618,-45.262 c 9.549,-9.549 21.008,-14.324 33.995,-14.324 13.178,0 24.636,4.775 34.185,14.324 l 3.247,3.246 c 8.976,8.977 13.751,20.435 13.942,33.613 0.19,13.56 -4.393,24.828 -13.942,34.377 l -8.785,8.785 18.525,18.525 8.785,-8.785 c 9.74,-9.931 16.424,-21.39 19.289,-34.186 2.865,-12.795 2.865,-25.591 -0.382,-38.196 -3.247,-12.605 -9.74,-23.682 -18.907,-32.849 l -3.247,-3.247 c -9.167,-9.167 -20.434,-15.66 -33.23,-19.289 -12.796,-3.628 -25.591,-3.628 -38.196,-0.382 -12.605,3.247 -23.873,9.931 -33.613,19.671 l -45.2618,45.263 c -9.74,9.74 -16.4243,21.199 -19.671,33.613 -3.2466,12.605 -3.2466,25.401 0.382,38.196 3.6286,12.796 10.1219,24.064 19.289,33.231 l 3.2466,3.247 c 13.1776,13.178 29.2202,20.244 47.5542,21.39 1.719,0 3.246,0 4.774,0 16.616,0 31.894,-5.347 45.263,-15.661 l 2.1,-1.718 -18.334,-18.335 -1.528,1.146 z"
       fill="#0176d3"
       id="path2" /><path
       d="m 348.282,149.947 c -3.649,-12.78 -10.179,-24.033 -19.398,-33.189 l -3.265,-3.243 C 312.558,100.354 296.425,93.2962 277.602,92.1517 258.972,91.0073 242.07,96.3481 227.281,107.793 l -2.112,1.716 18.63,18.503 1.536,-1.145 c 9.604,-6.485 20.359,-9.537 32.075,-8.393 11.716,0.954 21.896,5.341 30.539,12.78 l 3.073,3.052 c 9.219,10.11 13.828,21.745 13.828,34.906 0,13.162 -4.417,24.034 -13.636,33.19 l -46.288,45.969 c -9.603,9.538 -21.127,14.497 -34.188,14.497 -13.06,0 -24.776,-4.769 -34.379,-14.306 l -3.265,-3.242 c -9.027,-8.965 -13.829,-20.41 -14.021,-33.762 -0.192,-13.162 4.417,-24.797 14.021,-34.334 l 8.835,-8.774 -17.862,-17.74 -8.835,8.775 c -9.796,9.727 -16.518,21.172 -19.783,33.761 -3.265,12.589 -3.265,25.179 0,37.768 3.265,12.589 9.603,23.652 19.014,32.808 l 3.265,3.242 c 9.22,9.347 20.551,15.832 33.42,19.266 6.722,1.907 13.444,2.67 19.975,2.67 6.146,0 12.292,-0.763 18.438,-2.289 12.676,-3.243 24.008,-9.919 33.803,-19.647 l 46.288,-45.969 c 9.219,-9.156 15.749,-20.219 19.015,-32.808 3.265,-12.589 3.073,-25.369 -0.385,-38.149 z"
       fill="#0176d3"
       id="path3" /></g><g
     id="g4"
     transform="matrix(14.579747,0,0,14.404378,10.837237,14.690636)"
     inkscape:label="groupA"><path
       class="st0"
       d="m 5.6,19.5 c 0,0.8 0.3,1.4 0.8,1.7 0.5,0.4 1.3,0.5 2.3,0.6 v 1.6 C 7,23.4 5.7,23 4.8,22.4 3.9,21.8 3.4,20.8 3.4,19.6 V 16.1 C 3.4,15.3 3.1,14.7 2.6,14.4 2,14.1 1.2,13.9 0.1,13.9 v -1.6 c 1.2,0 2,-0.2 2.5,-0.6 C 3.1,11.3 3.4,10.8 3.4,10 V 6.4 C 3.4,5.2 3.9,4.3 4.8,3.6 5.7,2.9 7.1,2.6 8.7,2.6 V 4.2 C 6.6,4.3 5.6,5 5.6,6.5 V 10 c 0,1.7 -1,2.7 -3,3 v 0.1 c 2,0.3 3,1.3 3,3 z"
       id="path1-0"
       inkscape:label="pathLeft" /><path
       class="st0"
       d="m 23.4,12.9 c -2,-0.3 -3,-1.3 -3,-3 V 6.5 c 0,-1.5 -1,-2.3 -3,-2.3 V 2.6 c 1.6,0 2.9,0.3 3.9,1 0.9,0.7 1.4,1.6 1.4,2.8 V 10 c 0,0.8 0.3,1.3 0.8,1.7 0.5,0.4 1.4,0.5 2.5,0.6 v 1.6 c -1.1,0 -1.9,0.2 -2.5,0.5 -0.6,0.3 -0.8,0.9 -0.8,1.7 v 3.5 c 0,1.2 -0.5,2.1 -1.4,2.8 -0.9,0.7 -2.2,1 -3.9,1 v -1.6 c 1,0 1.7,-0.2 2.3,-0.6 0.5,-0.4 0.8,-0.9 0.8,-1.7 V 16 c 0,-0.9 0.2,-1.6 0.7,-2 0.5,-0.5 1.2,-0.8 2.3,-0.9 v -0.2 z"
       id="path2-9"
       inkscape:label="pathRight" /><path
       class="st1"
       d="m 11.3,15.2 c 0,-0.4 0.2,-0.8 0.5,-1.1 0.3,-0.3 0.7,-0.4 1.2,-0.4 0.6,0 1.1,0.2 1.4,0.6 0.4,0.4 0.6,0.9 0.6,1.6 0,0.7 -0.1,1.2 -0.3,1.7 -0.2,0.5 -0.4,0.9 -0.7,1.2 -0.3,0.3 -0.6,0.6 -1,0.8 -0.4,0.2 -0.7,0.4 -1.1,0.5 L 11.1,19 c 0.6,-0.2 1.1,-0.6 1.4,-1 0.3,-0.4 0.5,-1 0.5,-1.4 -0.5,0.1 -0.9,0.1 -1.2,-0.1 -0.3,-0.4 -0.5,-0.8 -0.5,-1.3 z"
       id="path3-4"
       inkscape:label="pathComma" /><path
       class="st1"
       d="m 11.4,7.7 c 0,-0.5 0.2,-0.9 0.5,-1.2 0.3,-0.3 0.7,-0.4 1.2,-0.4 0.5,0 0.9,0.1 1.2,0.4 0.3,0.3 0.5,0.7 0.5,1.2 0,0.5 -0.2,0.8 -0.5,1.1 C 14,9.1 13.6,9.3 13.1,9.3 12.6,9.3 12.2,9.1 11.9,8.8 11.6,8.5 11.4,8.2 11.4,7.7 Z"
       id="path4"
       inkscape:label="pathDot" /><path
       d="m 200,400.071 c 110.457,0 200,-89.559 200,-200.035 C 400,89.559 310.457,0 200,0 89.5431,0 0,89.559 0,200.036 0,310.512 89.5431,400.071 200,400.071 Z"
       fill="#cfe9fe"
       id="path1-8"
       style="display:none"
       transform="matrix(0.07622963,0,0,0.07715771,-2.3868726,-2.4959836)"
       inkscape:label="pathBackground" /></g><defs
     id="defs3"><clipPath
       id="clip0_73_1152"><rect
         width="400"
         height="400"
         fill="white"
         id="rect3" /></clipPath></defs><style
     type="text/css"
     id="style1">
	.st0{fill:#10A1DC;}
	.st1{fill:#077299;}
</style></svg>
