<?xml version="1.0" encoding="UTF-8" standalone="no"?>
<svg
   width="400"
   height="400"
   viewBox="0 0 400 400"
   fill="none"
   version="1.1"
   id="svg3"
   sodipodi:docname="icon.svg"
   xml:space="preserve"
   inkscape:version="1.4.3 (0d15f75, 2025-12-25)"
   xmlns:inkscape="http://www.inkscape.org/namespaces/inkscape"
   xmlns:sodipodi="http://sodipodi.sourceforge.net/DTD/sodipodi-0.dtd"
   xmlns="http://www.w3.org/2000/svg"
   xmlns:svg="http://www.w3.org/2000/svg"><sodipodi:namedview
     id="namedview3"
     pagecolor="#ffffff"
     bordercolor="#000000"
     borderopacity="0.25"
     inkscape:showpageshadow="2"
     inkscape:pageopacity="0.0"
     inkscape:pagecheckerboard="0"
     inkscape:deskcolor="#d1d1d1"
     inkscape:zoom="1.4265879"
     inkscape:cx="4.5563263"
     inkscape:cy="164.37823"
     inkscape:window-width="1920"
     inkscape:window-height="1009"
     inkscape:window-x="1912"
     inkscape:window-y="-8"
     inkscape:window-maximized="1"
     inkscape:current-layer="g1" /><g
     clip-path="url(#clip0_73_1152)"
     id="g3"
     inkscape:label="groupIcon"
     style="display:inline"><g
       id="g1"
       inkscape:label="group"
       transform="translate(-1.1029353,-1.94755)"><path
         class="st0"
         d="m 5.6,19.5 c 0,0.8 0.3,1.4 0.8,1.7 0.5,0.4 1.3,0.5 2.3,0.6 v 1.6 C 7,23.4 5.7,23 4.8,22.4 3.9,21.8 3.4,20.8 3.4,19.6 V 16.1 C 3.4,15.3 3.1,14.7 2.6,14.4 2,14.1 1.2,13.9 0.1,13.9 v -1.6 c 1.2,0 2,-0.2 2.5,-0.6 C 3.1,11.3 3.4,10.8 3.4,10 V 6.4 C 3.4,5.2 3.9,4.3 4.8,3.6 5.7,2.9 7.1,2.6 8.7,2.6 V 4.2 C 6.6,4.3 5.6,5 5.6,6.5 V 10 c 0,1.7 -1,2.7 -3,3 v 0.1 c 2,0.3 3,1.3 3,3 z"
         id="path1-0"
         inkscape:label="pathLeft"
         transform="matrix(14.579747,0,0,14.404378,10.837237,14.690636)" /><path
         class="st0"
         d="m 23.4,12.9 c -2,-0.3 -3,-1.3 -3,-3 V 6.5 c 0,-1.5 -1,-2.3 -3,-2.3 V 2.6 c 1.6,0 2.9,0.3 3.9,1 0.9,0.7 1.4,1.6 1.4,2.8 V 10 c 0,0.8 0.3,1.3 0.8,1.7 0.5,0.4 1.4,0.5 2.5,0.6 v 1.6 c -1.1,0 -1.9,0.2 -2.5,0.5 -0.6,0.3 -0.8,0.9 -0.8,1.7 v 3.5 c 0,1.2 -0.5,2.1 -1.4,2.8 -0.9,0.7 -2.2,1 -3.9,1 v -1.6 c 1,0 1.7,-0.2 2.3,-0.6 0.5,-0.4 0.8,-0.9 0.8,-1.7 V 16 c 0,-0.9 0.2,-1.6 0.7,-2 0.5,-0.5 1.2,-0.8 2.3,-0.9 v -0.2 z"
         id="path2-9"
         inkscape:label="pathRight"
         transform="matrix(14.579747,0,0,14.404378,10.837237,14.690636)" /><path
         class="st1"
         d="m 11.3,15.2 c 0,-0.4 0.2,-0.8 0.5,-1.1 0.3,-0.3 0.7,-0.4 1.2,-0.4 0.6,0 1.1,0.2 1.4,0.6 0.4,0.4 0.6,0.9 0.6,1.6 0,0.7 -0.1,1.2 -0.3,1.7 -0.2,0.5 -0.4,0.9 -0.7,1.2 -0.3,0.3 -0.6,0.6 -1,0.8 -0.4,0.2 -0.7,0.4 -1.1,0.5 L 11.1,19 c 0.6,-0.2 1.1,-0.6 1.4,-1 0.3,-0.4 0.5,-1 0.5,-1.4 -0.5,0.1 -0.9,0.1 -1.2,-0.1 -0.3,-0.4 -0.5,-0.8 -0.5,-1.3 z"
         id="path3-4"
         inkscape:label="pathComma"
         transform="matrix(14.579747,0,0,14.404378,10.837237,14.690636)" /><path
         class="st1"
         d="m 11.4,7.7 c 0,-0.5 0.2,-0.9 0.5,-1.2 0.3,-0.3 0.7,-0.4 1.2,-0.4 0.5,0 0.9,0.1 1.2,0.4 0.3,0.3 0.5,0.7 0.5,1.2 0,0.5 -0.2,0.8 -0.5,1.1 C 14,9.1 13.6,9.3 13.1,9.3 12.6,9.3 12.2,9.1 11.9,8.8 11.6,8.5 11.4,8.2 11.4,7.7 Z"
         id="path4"
         inkscape:label="pathDot"
         transform="matrix(14.579747,0,0,14.404378,10.837237,14.690636)" /></g></g><defs
     id="defs3"><clipPath
       id="clip0_73_1152"><rect
         width="400"
         height="400"
         fill="white"
         id="rect3" /></clipPath></defs><style
     type="text/css"
     id="style1">
	.st0{fill:#10A1DC;}
	.st1{fill:#077299;}
</style></svg>
